<svg width="2189" height="658" viewBox="0 0 2189 658" fill="none" xmlns="http://www.w3.org/2000/svg">
<g clip-path="url(#clip0_783_820)">
<path d="M665.12 242V450.08H767.8V480H633.5V242H665.12ZM930.575 339.24V310H960.155V480H930.575V450.76C916.068 473.2 894.648 484.42 866.315 484.42C842.288 484.42 822.002 475.807 805.455 458.58C788.682 441.127 780.295 419.933 780.295 395C780.295 370.293 788.682 349.213 805.455 331.76C822.228 314.307 842.515 305.58 866.315 305.58C894.648 305.58 916.068 316.8 930.575 339.24ZM870.055 455.86C887.282 455.86 901.675 450.08 913.235 438.52C924.795 426.507 930.575 412 930.575 395C930.575 377.773 924.795 363.38 913.235 351.82C901.675 340.033 887.282 334.14 870.055 334.14C853.055 334.14 838.775 340.033 827.215 351.82C815.655 363.38 809.875 377.773 809.875 395C809.875 412 815.655 426.507 827.215 438.52C838.775 450.08 853.055 455.86 870.055 455.86ZM1034.55 310V338.56C1044.3 317.48 1061.98 306.94 1087.59 306.94V337.88C1073.08 337.2 1060.62 341.053 1050.19 349.44C1039.76 357.827 1034.55 371.313 1034.55 389.9V480H1004.97V310H1034.55ZM1270.44 408.6H1127.98C1130.92 423.56 1137.84 435.347 1148.72 443.96C1159.6 452.347 1173.2 456.54 1189.52 456.54C1211.96 456.54 1228.28 448.267 1238.48 431.72L1263.64 446C1246.86 471.613 1221.93 484.42 1188.84 484.42C1162.09 484.42 1140.1 476.033 1122.88 459.26C1106.1 442.033 1097.72 420.613 1097.72 395C1097.72 369.16 1105.99 347.853 1122.54 331.08C1139.08 314.08 1160.5 305.58 1186.8 305.58C1211.73 305.58 1232.02 314.42 1247.66 332.1C1263.52 349.327 1271.46 370.407 1271.46 395.34C1271.46 399.647 1271.12 404.067 1270.44 408.6ZM1186.8 333.46C1171.16 333.46 1158.01 337.88 1147.36 346.72C1136.93 355.56 1130.47 367.573 1127.98 382.76H1241.54C1239.04 367.12 1232.81 354.993 1222.84 346.38C1212.86 337.767 1200.85 333.46 1186.8 333.46ZM1324.32 355.9C1324.32 366.78 1335.54 375.28 1357.98 381.4C1366.37 383.213 1373.39 385.14 1379.06 387.18C1384.95 388.993 1391.3 391.827 1398.1 395.68C1405.13 399.533 1410.45 404.633 1414.08 410.98C1417.71 417.327 1419.52 424.807 1419.52 433.42C1419.52 448.833 1413.51 461.187 1401.5 470.48C1389.49 479.773 1374.3 484.42 1355.94 484.42C1339.62 484.42 1325.45 480.907 1313.44 473.88C1301.65 466.627 1293.27 456.88 1288.28 444.64L1313.78 430.02C1316.5 438.18 1321.6 444.64 1329.08 449.4C1336.56 454.16 1345.51 456.54 1355.94 456.54C1366.14 456.54 1374.3 454.613 1380.42 450.76C1386.54 446.907 1389.6 441.127 1389.6 433.42C1389.6 421.86 1378.38 413.473 1355.94 408.26C1348.46 406.22 1342.79 404.633 1338.94 403.5C1335.09 402.367 1329.76 400.327 1322.96 397.38C1316.39 394.433 1311.4 391.373 1308 388.2C1304.6 384.8 1301.43 380.38 1298.48 374.94C1295.76 369.273 1294.4 363.04 1294.4 356.24C1294.4 341.507 1300.07 329.38 1311.4 319.86C1322.96 310.34 1337.35 305.58 1354.58 305.58C1368.41 305.58 1380.65 308.753 1391.3 315.1C1402.18 321.22 1410.34 329.833 1415.78 340.94L1390.96 354.88C1384.84 340.373 1372.71 333.12 1354.58 333.12C1345.97 333.12 1338.71 335.16 1332.82 339.24C1327.15 343.32 1324.32 348.873 1324.32 355.9ZM1569.46 484.42C1533.19 484.42 1503.39 472.52 1480.04 448.72C1456.69 425.147 1445.02 395.907 1445.02 361C1445.02 326.093 1456.69 296.853 1480.04 273.28C1503.39 249.48 1533.19 237.58 1569.46 237.58C1590.99 237.58 1610.94 242.793 1629.3 253.22C1647.66 263.647 1661.94 277.7 1672.14 295.38L1644.6 311.36C1637.8 298.213 1627.6 287.787 1614 280.08C1600.63 272.147 1585.78 268.18 1569.46 268.18C1541.81 268.18 1519.37 277.02 1502.14 294.7C1484.91 312.153 1476.3 334.253 1476.3 361C1476.3 387.52 1484.91 409.507 1502.14 426.96C1519.37 444.64 1541.81 453.48 1569.46 453.48C1585.78 453.48 1600.63 449.627 1614 441.92C1627.6 433.987 1637.8 423.56 1644.6 410.64L1672.14 426.28C1662.17 443.96 1648 458.127 1629.64 468.78C1611.51 479.207 1591.45 484.42 1569.46 484.42ZM1844.99 339.24V310H1874.57V480H1844.99V450.76C1830.48 473.2 1809.06 484.42 1780.73 484.42C1756.7 484.42 1736.42 475.807 1719.87 458.58C1703.1 441.127 1694.71 419.933 1694.71 395C1694.71 370.293 1703.1 349.213 1719.87 331.76C1736.64 314.307 1756.93 305.58 1780.73 305.58C1809.06 305.58 1830.48 316.8 1844.99 339.24ZM1784.47 455.86C1801.7 455.86 1816.09 450.08 1827.65 438.52C1839.21 426.507 1844.99 412 1844.99 395C1844.99 377.773 1839.21 363.38 1827.65 351.82C1816.09 340.033 1801.7 334.14 1784.47 334.14C1767.47 334.14 1753.19 340.033 1741.63 351.82C1730.07 363.38 1724.29 377.773 1724.29 395C1724.29 412 1730.07 426.507 1741.63 438.52C1753.19 450.08 1767.47 455.86 1784.47 455.86ZM1948.97 310V338.56C1958.71 317.48 1976.39 306.94 2002.01 306.94V337.88C1987.5 337.2 1975.03 341.053 1964.61 349.44C1954.18 357.827 1948.97 371.313 1948.97 389.9V480H1919.39V310H1948.97ZM2184.85 408.6H2042.39C2045.34 423.56 2052.25 435.347 2063.13 443.96C2074.01 452.347 2087.61 456.54 2103.93 456.54C2126.37 456.54 2142.69 448.267 2152.89 431.72L2178.05 446C2161.28 471.613 2136.34 484.42 2103.25 484.42C2076.5 484.42 2054.52 476.033 2037.29 459.26C2020.52 442.033 2012.13 420.613 2012.13 395C2012.13 369.16 2020.4 347.853 2036.95 331.08C2053.5 314.08 2074.92 305.58 2101.21 305.58C2126.14 305.58 2146.43 314.42 2162.07 332.1C2177.94 349.327 2185.87 370.407 2185.87 395.34C2185.87 399.647 2185.53 404.067 2184.85 408.6ZM2101.21 333.46C2085.57 333.46 2072.42 337.88 2061.77 346.72C2051.34 355.56 2044.88 367.573 2042.39 382.76H2155.95C2153.46 367.12 2147.22 354.993 2137.25 346.38C2127.28 337.767 2115.26 333.46 2101.21 333.46Z" fill="#EDE6D8"/>
<path d="M416 370C451.346 370 480 398.654 480 434C480 469.346 451.346 498 416 498C380.654 498 352 469.346 352 434H384C384 451.673 398.327 466 416 466C433.673 466 448 451.673 448 434C448 416.327 433.673 402 416 402H64C46.3269 402 32 416.327 32 434C32 451.673 46.3269 466 64 466C81.6731 466 96 451.673 96 434H128C128 469.346 99.3462 498 64 498C28.6538 498 0 469.346 0 434C0 398.654 28.6538 370 64 370H416Z" fill="#EDE6D8"/>
<path d="M288 434H320V578L288 594V434Z" fill="#EDE6D8"/>
<path d="M224 434H256V610L224 626V434Z" fill="#EDE6D8"/>
<path d="M160 434H192V642L160 658V434Z" fill="#EDE6D8"/>
<path d="M251.32 45.3896C291.99 4.66983 360.177 6.78438 402.013 48.5244C441.517 90.2975 442.335 157.784 402.404 198.064L240.028 333.161L78.6523 198.123C37.6858 156.761 37.7749 89.9531 78.9717 48.7051C120.831 6.79406 187.953 4.61298 228.68 45.3896L240 56.7246L251.32 45.3896Z" stroke="#EDE6D8" stroke-width="32"/>
</g>
<defs>
<clipPath id="clip0_783_820">
<rect width="2189" height="658" fill="white"/>
</clipPath>
</defs>
</svg>
