<svg width="544" height="544" viewBox="0 0 544 544" fill="none" xmlns="http://www.w3.org/2000/svg">
<rect width="544" height="544" fill="#19465D"/>
<path d="M448 178C483.346 178 512 206.654 512 242C512 277.346 483.346 306 448 306C412.654 306 384 277.346 384 242H416C416 259.673 430.327 274 448 274C465.673 274 480 259.673 480 242C480 224.327 465.673 210 448 210H96C78.3269 210 64 224.327 64 242C64 259.673 78.3269 274 96 274C113.673 274 128 259.673 128 242H160C160 277.346 131.346 306 96 306C60.6538 306 32 277.346 32 242C32 206.654 60.6538 178 96 178H448Z" fill="#EDE6D8"/>
<path d="M320 242H352V386L320 402V242Z" fill="#EDE6D8"/>
<path d="M256 242H288V418L256 434V242Z" fill="#EDE6D8"/>
<path d="M192 242H224V450L192 466V242Z" fill="#EDE6D8"/>
</svg>
