<svg preserveAspectRatio="none" overflow="visible" style="display: block;" width="19.6923" height="19.6923" viewBox="0 0 19.6923 19.6923" fill="none" xmlns="http://www.w3.org/2000/svg">
<g id="Phosphor / list / regular / 32px">
<path id="Vector" d="M17.2314 9.84621C17.2314 10.0094 17.1665 10.1659 17.0511 10.2814C16.9357 10.3968 16.7792 10.4616 16.616 10.4616H3.07752C2.91431 10.4616 2.75779 10.3968 2.64238 10.2814C2.52697 10.1659 2.46214 10.0094 2.46214 9.84621C2.46214 9.683 2.52697 9.52648 2.64238 9.41107C2.75779 9.29566 2.91431 9.23083 3.07752 9.23083H16.616C16.7792 9.23083 16.9357 9.29566 17.0511 9.41107C17.1665 9.52648 17.2314 9.683 17.2314 9.84621ZM3.07752 5.53852H16.616C16.7792 5.53852 16.9357 5.47368 17.0511 5.35828C17.1665 5.24287 17.2314 5.08634 17.2314 4.92313C17.2314 4.75992 17.1665 4.6034 17.0511 4.48799C16.9357 4.37258 16.7792 4.30775 16.616 4.30775H3.07752C2.91431 4.30775 2.75779 4.37258 2.64238 4.48799C2.52697 4.6034 2.46214 4.75992 2.46214 4.92313C2.46214 5.08634 2.52697 5.24287 2.64238 5.35828C2.75779 5.47368 2.91431 5.53852 3.07752 5.53852ZM16.616 14.1539H3.07752C2.91431 14.1539 2.75779 14.2187 2.64238 14.3341C2.52697 14.4496 2.46214 14.6061 2.46214 14.7693C2.46214 14.9325 2.52697 15.089 2.64238 15.2044C2.75779 15.3198 2.91431 15.3847 3.07752 15.3847H16.616C16.7792 15.3847 16.9357 15.3198 17.0511 15.2044C17.1665 15.089 17.2314 14.9325 17.2314 14.7693C17.2314 14.6061 17.1665 14.4496 17.0511 14.3341C16.9357 14.2187 16.7792 14.1539 16.616 14.1539Z" fill="#0F2D5B"/>
</g>
</svg>
